<svg width="128" height="128" viewBox="0 0 128 128" xmlns="http://www.w3.org/2000/svg">
  <rect x="8" y="8" width="112" height="112" rx="28" fill="#25D366" />
  <path
    d="M64 30c-17 0-30.8 13.6-30.8 30.4 0 5.4 1.4 10.6 4 15.2L34 94l18.9-3.9c4.4 2.4 9.4 3.6 14.5 3.6 17 0 30.8-13.6 30.8-30.4C98.2 43.6 81 30 64 30zm0 8.4c12.3 0 22.4 9.9 22.4 22s-10.1 22-22.4 22c-4.1 0-8.1-1.1-11.6-3.1l-0.8-.4-11.2 2.3 2.3-10.8-.5-.9c-2.5-4.1-3.8-8.8-3.8-13.6 0-12.1 10.1-22 22.4-22zm-10.9 11c-.6 0-1.6.2-2.4 1-0.8.8-3.1 3-3.1 7.3 0 4.3 3.2 8.4 3.6 9s6.1 9.7 15.4 13.2c7.6 3 9.2 2.4 10.9 2.3 1.7-.1 5.4-2.2 6.2-4.4.8-2.2.8-4.1.6-4.4-.2-.3-.9-.5-1.9-.9s-5.9-2.9-6.8-3.2c-.9-.3-1.5-.5-2.1.5-.6 1-2.4 3.2-2.9 3.9-.5.7-1.1.8-2 .3-0.9-.5-3.7-1.4-7-4.4-2.6-2.4-4.4-5.3-4.9-6.2-.5-.9-.1-1.4.4-1.9.4-.4.9-1 1.3-1.5.4-.5.6-.8.9-1.3.3-.5.2-1-.1-1.4-.3-.4-2.2-5.3-3.1-7.3-.8-1.8-1.7-1.9-2.3-1.9z"
    fill="#FFFFFF"
  />
</svg>
